<svg height="54.671" viewBox="0 0 343.84 54.671" width="343.84" xmlns="http://www.w3.org/2000/svg"><g transform="translate(-175.513 -258.61)"><g fill="#fff"><path d="m277.72 306.3h5.065v-12.61h10.634v-5.04h-10.634v-7.55h13.156v-5.06h-18.221z" transform="translate(-30.606 -5.219)"/><path d="m323.094 287.479a12.288 12.288 0 0 0 -11.853 0 10.508 10.508 0 0 0 -3.972 4.2 13.156 13.156 0 0 0 -1.4 6.263 13.31 13.31 0 0 0 1.4 6.207 10.467 10.467 0 0 0 3.944 4.238 12.323 12.323 0 0 0 11.909 0 10.508 10.508 0 0 0 3.958-4.2 14.382 14.382 0 0 0 0-12.442 10.508 10.508 0 0 0 -3.986-4.266zm-1.471 15.657a5.993 5.993 0 0 1 -8.925.049 8.406 8.406 0 0 1 -1.5-5.261 10.431 10.431 0 0 1 .63-3.776 5.36 5.36 0 0 1 1.94-2.543 5.752 5.752 0 0 1 3.356-.911 5.261 5.261 0 0 1 4.477 1.962 8.5 8.5 0 0 1 1.492 5.268 8.631 8.631 0 0 1 -1.47 5.212z" transform="translate(-39.034 -8.189)"/><path d="m359.574 287.479a12.288 12.288 0 0 0 -11.853 0 10.508 10.508 0 0 0 -3.972 4.2 13.156 13.156 0 0 0 -1.4 6.263 13.31 13.31 0 0 0 1.4 6.207 10.466 10.466 0 0 0 3.944 4.238 12.322 12.322 0 0 0 11.909 0 10.508 10.508 0 0 0 3.958-4.2 14.382 14.382 0 0 0 0-12.442 10.508 10.508 0 0 0 -3.986-4.266zm-1.474 15.657a5.993 5.993 0 0 1 -8.925.049 8.406 8.406 0 0 1 -1.471-5.289 10.43 10.43 0 0 1 .63-3.776 5.359 5.359 0 0 1 1.94-2.543 5.752 5.752 0 0 1 3.356-.911 5.261 5.261 0 0 1 4.476 1.962 8.5 8.5 0 0 1 1.494 5.272 8.631 8.631 0 0 1 -1.5 5.236z" transform="translate(-49.958 -8.189)"/><path d="m394.989 284.708-.224-.182a9.108 9.108 0 0 0 -5.429-1.562 9.92 9.92 0 0 0 -5.6 1.562 10.341 10.341 0 0 0 -3.671 4.266 15.272 15.272 0 0 0 0 12.267 9.982 9.982 0 0 0 14.648 4.287 10.1 10.1 0 0 0 .9-.736v1.681h4.476v-30.291h-5.107zm.049 14.123a4.939 4.939 0 0 1 -5.114 3.552 5.184 5.184 0 0 1 -3.258-.988 5.829 5.829 0 0 1 -1.905-2.683 10.88 10.88 0 0 1 -.616-3.769 10.691 10.691 0 0 1 .63-3.755 5.822 5.822 0 0 1 1.955-2.69 5.429 5.429 0 0 1 3.363-.995 5.03 5.03 0 0 1 3.152.932 5.408 5.408 0 0 1 1.793 2.606 13.31 13.31 0 0 1 0 7.79z" transform="translate(-60.867 -5.208)"/><path d="m449.139 292.263a10.754 10.754 0 0 0 1.87-6.354 12.035 12.035 0 0 0 -.827-4.554 8.1 8.1 0 0 0 -2.543-3.391 9.107 9.107 0 0 0 -4.343-1.744 9.8 9.8 0 0 0 -1.282-.14h-13.6v30.264h5.065v-10.6h7.188l5.121 10.571h5.745l-5.6-11.475a7.433 7.433 0 0 0 3.216-2.578zm-15.692-11.463h8.238a4.423 4.423 0 0 1 .96.161 3.853 3.853 0 0 1 1.99 1.114 4.645 4.645 0 0 1 1.03 1.814 6.949 6.949 0 0 1 .308 1.99 6.815 6.815 0 0 1 -.308 1.976 4.672 4.672 0 0 1 -1.03 1.807 3.853 3.853 0 0 1 -1.99 1.114 4.9 4.9 0 0 1 -.96.168c-.357 0-.7.042-.953.042h-7.258z" transform="translate(-75.731 -5.231)"/><path d="m482 287.584a10.55 10.55 0 0 0 -6-1.646 11.286 11.286 0 0 0 -5.885 1.513 10.446 10.446 0 0 0 -3.972 4.252 13.822 13.822 0 0 0 -1.4 6.466 12.414 12.414 0 0 0 1.464 6.095 10.507 10.507 0 0 0 4.042 4.133 11.909 11.909 0 0 0 6.046 1.492 11.1 11.1 0 0 0 6-1.7 10.151 10.151 0 0 0 4.021-4.771l-5-1.513a5.409 5.409 0 0 1 -2.1 2.4 6.053 6.053 0 0 1 -3.229.834 5.3 5.3 0 0 1 -4.406-1.891 7.432 7.432 0 0 1 -1.443-3.93h16.435a15.818 15.818 0 0 0 -.9-7.083 9.808 9.808 0 0 0 -3.673-4.651zm-5.794 2.8a4.723 4.723 0 0 1 4.035 1.7 7.07 7.07 0 0 1 1.184 3.426h-11.153a7.088 7.088 0 0 1 1.317-3.209 5.488 5.488 0 0 1 4.617-1.934z" transform="translate(-86.608 -8.182)"/><path d="m516.495 287.5a9.884 9.884 0 0 0 -5.6-1.562 9.107 9.107 0 0 0 -5.429 1.562 10.414 10.414 0 0 0 -.855.7v-1.639h-4.481v32.786h5.107v-11.247c.1.07.175.154.273.224a9.982 9.982 0 0 0 14.648-4.287 15.2 15.2 0 0 0 -.021-12.267 10.43 10.43 0 0 0 -3.642-4.27zm-1.009 14.186a5.829 5.829 0 0 1 -1.905 2.683 5.185 5.185 0 0 1 -3.258.988 4.939 4.939 0 0 1 -5.114-3.552 13.309 13.309 0 0 1 0-7.79 5.407 5.407 0 0 1 1.791-2.606 5.029 5.029 0 0 1 3.153-.932 5.43 5.43 0 0 1 3.363.995 5.821 5.821 0 0 1 1.954 2.69 10.689 10.689 0 0 1 .631 3.755 10.882 10.882 0 0 1 -.617 3.769z" transform="translate(-97.208 -8.182)"/><path d="m550.815 298.5a10.626 10.626 0 0 1 -.462 3.4 5.415 5.415 0 0 1 -1.226 2.1 4.378 4.378 0 0 1 -1.716 1.086 6.01 6.01 0 0 1 -1.912.315 4.743 4.743 0 0 1 -2.865-.778 4.9 4.9 0 0 1 -1.6-1.989 8.529 8.529 0 0 1 -.7-2.522 21.344 21.344 0 0 1 -.147-2.361v-10.921h-5.127v12.67a20.627 20.627 0 0 0 .14 2.1 14.233 14.233 0 0 0 .6 2.8 9.33 9.33 0 0 0 1.4 2.8 7.35 7.35 0 0 0 2.606 2.144 9.109 9.109 0 0 0 4.161.841 9.808 9.808 0 0 0 5.38-1.4 8.778 8.778 0 0 0 2.039-1.786v2.536h4.476v-22.7h-5.086z" transform="translate(-107.668 -8.451)"/><path d="m588 284.526a9.885 9.885 0 0 0 -5.6-1.562 9.107 9.107 0 0 0 -5.429 1.562l-.224.182v-8.708h-5.107v30.264h4.46v-1.681a9.189 9.189 0 0 0 .9.736 9.982 9.982 0 0 0 14.648-4.287 15.2 15.2 0 0 0 -.021-12.267 10.432 10.432 0 0 0 -3.627-4.239zm-1 14.186a5.828 5.828 0 0 1 -1.905 2.683 5.184 5.184 0 0 1 -3.258.988 4.939 4.939 0 0 1 -5.114-3.552 13.308 13.308 0 0 1 0-7.79 5.408 5.408 0 0 1 1.793-2.606 5.031 5.031 0 0 1 3.152-.932 5.429 5.429 0 0 1 3.363.995 5.822 5.822 0 0 1 1.955 2.69 10.693 10.693 0 0 1 .63 3.755 10.88 10.88 0 0 1 -.63 3.769z" transform="translate(-118.622 -5.208)"/><path d="m478.329 270.19h5.065v30.894h-5.065z"/></g><path d="m630.245 267.94a7.131 7.131 0 0 0 -6.655 9.731 7.256 7.256 0 0 0 .876.063 7.125 7.125 0 0 0 6.648-9.734 7.03 7.03 0 0 0 -.869-.06z" fill="#34b24b" transform="translate(-134.032 -2.794)"/><path d="m489.068 278.386h5.065v22.698h-5.065z" fill="#fff"/><path d="m650.323 304.182a5.765 5.765 0 0 1 -7.5-1.072 8.7 8.7 0 0 1 -1.45-5.233 10.618 10.618 0 0 1 .61-3.72 5.45 5.45 0 0 1 1.891-2.578 5.387 5.387 0 0 1 3.258-.932 5.065 5.065 0 0 1 3.111 1.016 5.605 5.605 0 0 1 1.955 2.851l5.044-1.366a8.953 8.953 0 0 0 -3.5-5.31 10.858 10.858 0 0 0 -6.55-1.941 11.091 11.091 0 0 0 -5.948 1.541 10.319 10.319 0 0 0 -3.853 4.245 13.823 13.823 0 0 0 -1.4 6.193 14.1 14.1 0 0 0 1.338 6.137 10.193 10.193 0 0 0 3.79 4.273 10.992 10.992 0 0 0 5.99 1.569 10.845 10.845 0 0 0 6.431-1.863 9.738 9.738 0 0 0 3.678-5.324l-5.107-1.128a5.562 5.562 0 0 1 -1.786 2.641z" fill="#fff" transform="translate(-137.891 -8.17)"/><path d="m198.418 283.154q1.184-1.534 4.014-1.534h4.35v-4.4h-5.205a9.031 9.031 0 0 0 -8.953 7.841 11.961 11.961 0 0 0 -.084 1.35v10.382a9.044 9.044 0 0 0 4.729 7.937v-8.84h9.513v-4.406h-9.513v-4.984a5.3 5.3 0 0 1 1.149-3.346z" fill="#fff" transform="translate(-5.099 -5.573)"/><path d="m202.86 258.638a27.321 27.321 0 1 0 19.419 46.516l-1.233-1.506-5.156-6.3-3.244-3.965-2.025-2.473-.56-.7a9.722 9.722 0 0 0 3.958-1.254 8.105 8.105 0 0 0 3.251-3.5 10.733 10.733 0 0 0 1.009-4.575v-.89c0-.161-.035-.315-.049-.469a9.037 9.037 0 0 0 -8.96-7.881h-5.2v3.659.7h4.343a4.816 4.816 0 0 1 4.014 1.534 5.31 5.31 0 0 1 1.191 3.342 5.6 5.6 0 0 1 -.5 2.221 4.568 4.568 0 0 1 -1.7 1.962 5.457 5.457 0 0 1 -3.124.806h-4.2v4.406l4.343 5.3 7.447 9.107a22.817 22.817 0 1 1 6.7-7.272l3.005 3.671a27.321 27.321 0 0 0 -22.729-42.467z" fill="#34b24b"/></g></svg>