<?xml version="1.0" standalone="no"?>
<!DOCTYPE svg PUBLIC "-//W3C//DTD SVG 20010904//EN"
 "http://www.w3.org/TR/2001/REC-SVG-20010904/DTD/svg10.dtd">
<svg version="1.0" xmlns="http://www.w3.org/2000/svg"
 width="225.000000pt" height="225.000000pt" viewBox="0 0 225.000000 225.000000"
 preserveAspectRatio="xMidYMid meet">
<metadata>
Created by potrace 1.14, written by Peter Selinger 2001-2017
</metadata>
<g transform="translate(0.000000,225.000000) scale(0.100000,-0.100000)"
fill="#000000" stroke="none">
<path d="M812 1605 c-76 -24 -133 -74 -180 -160 l-27 -50 0 -260 c0 -256 0
-261 24 -310 25 -49 101 -135 121 -135 6 0 10 52 10 145 l0 145 163 2 162 3 0
75 0 75 -162 3 -163 2 0 98 c0 82 4 105 23 142 37 74 61 84 193 88 l114 4 0
74 0 74 -117 -1 c-69 0 -136 -6 -161 -14z"/>
</g>
</svg>
